<svg width="24" height="24" viewBox="0 0 24 24" fill="none" xmlns="http://www.w3.org/2000/svg">
<g clip-path="url(#clip0_40_10)">
<path d="M6 3.00028V19.0003C5.99995 19.1782 6.04737 19.3529 6.13738 19.5064C6.22739 19.6599 6.35672 19.7866 6.51202 19.8734C6.66733 19.9602 6.84299 20.0041 7.02088 20.0003C7.19878 19.9966 7.37245 19.9455 7.524 19.8523L20.524 11.8523C20.6696 11.7628 20.7898 11.6375 20.8733 11.4884C20.9567 11.3392 21.0005 11.1712 21.0005 11.0003C21.0005 10.8294 20.9567 10.6613 20.8733 10.5122C20.7898 10.363 20.6696 10.2378 20.524 10.1483L7.524 2.14828C7.37245 2.05505 7.19878 2.00393 7.02088 2.00022C6.84299 1.9965 6.66733 2.04032 6.51202 2.12714C6.35672 2.21397 6.22739 2.34066 6.13738 2.49414C6.04737 2.64763 5.99995 2.82235 6 3.00028Z" fill="black"/>
</g>
<defs>
<clipPath id="clip0_40_10">
<rect width="24" height="24" fill="white"/>
</clipPath>
</defs>
</svg>
