<svg width="15" height="21" viewBox="0 0 15 21" fill="none" xmlns="http://www.w3.org/2000/svg">
<path d="M3.97067e-08 1.13029V19.2099C-5.0094e-05 19.4109 0.0473748 19.6084 0.137382 19.7818C0.227388 19.9552 0.356717 20.0984 0.512024 20.1965C0.667332 20.2946 0.842993 20.3441 1.02088 20.3399C1.19878 20.3357 1.37245 20.278 1.524 20.1726L14.524 11.1328C14.6696 11.0317 14.7898 10.8901 14.8733 10.7216C14.9567 10.5531 15.0005 10.3632 15.0005 10.1701C15.0005 9.97698 14.9567 9.78709 14.8733 9.61855C14.7898 9.45001 14.6696 9.30844 14.524 9.20734L1.524 0.167555C1.37245 0.0622011 1.19878 0.00444545 1.02088 0.000246511C0.842993 -0.00395243 0.667332 0.0455574 0.512024 0.143668C0.356717 0.241778 0.227388 0.384936 0.137382 0.558371C0.0473748 0.731805 -5.0094e-05 0.929236 3.97067e-08 1.13029Z" fill="black"/>
</svg>
