<svg width="24" height="24" viewBox="0 0 24 24" fill="none" xmlns="http://www.w3.org/2000/svg">
<g clip-path="url(#clip0_51_56)">
<path d="M2 5.00002V19C2 19.86 3.012 20.318 3.659 19.753L11.659 12.753C11.7664 12.6592 11.8525 12.5434 11.9115 12.4135C11.9705 12.2837 12.001 12.1427 12.001 12C12.001 11.8574 11.9705 11.7164 11.9115 11.5865C11.8525 11.4566 11.7664 11.3409 11.659 11.247L3.659 4.24702C3.012 3.68202 2 4.14102 2 5.00002Z" fill="black"/>
<path d="M13 5.00002V19C13 19.86 14.012 20.318 14.659 19.753L22.659 12.753C22.7664 12.6592 22.8525 12.5434 22.9115 12.4135C22.9705 12.2837 23.001 12.1427 23.001 12C23.001 11.8574 22.9705 11.7164 22.9115 11.5865C22.8525 11.4566 22.7664 11.3409 22.659 11.247L14.659 4.24702C14.012 3.68202 13 4.14102 13 5.00002Z" fill="black"/>
</g>
<defs>
<clipPath id="clip0_51_56">
<rect width="24" height="24" fill="white"/>
</clipPath>
</defs>
</svg>
